<svg version="1.1" id="Layer_1" xmlns="http://www.w3.org/2000/svg" xmlns:xlink="http://www.w3.org/1999/xlink" x="0px" y="0px" width="100%" viewBox="0 0 704 752" enable-background="new 0 0 704 752" xml:space="preserve">
<path fill="#000000" opacity="1.000000" stroke="none" d=" M270.979797,55.232857   C272.147858,50.584530 272.591675,46.312302 272.624207,41.944382   C272.690338,33.062645 278.164764,27.654554 286.996185,27.651331   C338.655182,27.632477 390.314209,27.637854 441.973206,27.656706   C452.168915,27.660427 457.728119,33.406654 457.937042,43.836575   C458.213531,57.640011 460.820190,70.901123 467.329285,83.238480   C469.921417,88.151642 473.390930,92.383133 477.100922,96.457603   C478.753021,98.272034 480.817017,99.391518 483.184479,99.612747   C498.487946,101.042847 513.192871,105.324211 527.969543,109.150780   C536.434265,111.342804 544.693420,110.654869 553.157410,109.624802   C586.024902,105.624832 614.977661,114.214821 638.459351,138.005905   C652.023682,151.748978 659.480835,168.660248 662.626831,187.917999   C665.410217,204.956238 663.279602,221.338852 659.909302,237.874878   C657.883484,247.814713 660.418579,257.417206 663.296326,266.819061   C669.367126,286.653046 676.664124,306.139771 679.592651,326.830383   C682.052063,344.206177 682.364136,361.527557 680.744995,379.075623   C678.406006,404.425415 672.278870,428.841675 664.978333,453.059570   C663.252380,458.785217 661.221497,464.432343 659.046753,470.004761   C657.507996,473.947662 657.700623,477.622467 658.931396,481.611725   C667.270630,508.640869 672.501465,536.162842 670.949463,564.611938   C670.036804,581.343018 665.701721,597.374390 660.264465,613.143127   C652.790527,634.818726 643.976990,656.096741 639.872986,678.797729   C637.683777,690.906738 635.981079,703.085449 636.216492,715.486389   C636.435974,727.046265 630.994202,732.343018 619.552063,732.343872   C449.743896,732.356262 279.935730,732.360229 110.127556,732.356628   C99.247452,732.356384 93.724876,727.016663 93.770302,716.185791   C93.888481,688.011597 87.027924,661.281494 77.525093,635.029663   C71.249397,617.692749 64.518120,600.461182 61.264755,582.204651   C58.295544,565.542603 58.219044,548.830078 60.247845,531.988586   C62.343758,514.589905 66.174622,497.641327 71.393234,480.963959   C72.577385,477.179749 72.429985,473.602509 71.001389,469.842590   C63.963795,451.320068 58.307564,432.355438 54.435173,412.933289   C49.380924,387.583466 46.544170,362.131744 49.366699,336.112671   C51.539120,316.086487 57.010445,297.088867 63.215778,278.119324   C66.769211,267.256592 70.860634,256.421356 70.806808,244.719650   C70.768311,236.350296 68.019699,228.386993 66.901985,220.157120   C60.663898,174.225403 82.291008,129.155869 131.455246,113.285728   C148.902527,107.653778 166.757416,107.334892 184.727173,110.602989   C192.357849,111.990753 199.615814,109.668610 206.825592,107.920998   C217.316681,105.378021 227.662262,101.479950 238.399948,100.984436   C249.853134,100.455894 256.387177,94.313019 261.427368,85.354286   C266.613403,76.136276 270.171906,66.335503 270.979797,55.232857  M584.690308,359.441040   C585.075500,346.425995 583.981689,333.559479 582.066223,320.656250   C580.916382,312.910461 577.868408,305.576416 577.659119,297.704773   C577.433167,289.208069 582.286316,282.879578 589.704895,281.861176   C596.523926,280.925079 603.886169,285.938080 605.901917,293.256195   C609.348328,305.767944 611.550354,318.580536 612.947876,331.427582   C615.446716,354.398651 613.459717,377.288910 609.580627,399.996765   C606.306824,419.161285 601.362244,437.946991 596.498108,456.762909   C589.805115,482.653748 582.486938,508.377838 576.343689,534.419617   C571.262451,555.959167 566.830566,577.630371 563.598083,599.479431   C558.725220,632.416687 556.388733,665.625793 555.387085,698.918579   C555.288879,702.182129 555.963257,703.882935 559.670044,703.851501   C574.334351,703.727295 589.000488,703.750305 603.665405,703.825989   C606.666626,703.841492 607.537537,702.619080 607.853577,699.697449   C608.764465,691.274231 609.853882,682.854187 611.308777,674.508850   C615.903503,648.154175 626.350281,623.578125 634.713257,598.367188   C639.716431,583.284729 643.087646,567.838867 642.502441,551.870544   C641.687988,529.645264 637.362854,507.994019 630.362000,486.903351   C627.634460,478.686249 627.583862,470.938538 631.060791,462.743500   C634.616455,454.363037 637.179382,445.529480 639.747620,436.768433   C645.690063,416.496185 650.425171,396.021820 652.242859,374.836731   C653.665649,358.253723 653.076965,341.847321 650.264832,325.611206   C647.113037,307.413818 640.183105,290.180756 634.942200,272.514862   C630.821960,258.626373 628.866394,244.587296 632.289673,230.230347   C636.096375,214.265320 636.718262,198.313049 631.938538,182.440247   C622.329895,150.531128 591.918579,136.275131 562.767334,137.968277   C548.689758,138.785904 534.813721,141.527710 520.732239,137.344284   C505.111572,132.703598 489.226196,129.030975 472.885773,127.768631   C469.837982,127.533195 467.204041,126.049484 464.800751,124.125160   C445.079865,108.334442 434.511200,87.409279 430.783478,62.817928   C430.041290,57.921780 428.396484,56.086464 423.238678,56.111893   C384.409576,56.303364 345.578461,56.317440 306.749817,56.079975   C301.492523,56.047821 299.955048,57.918076 299.271515,62.757996   C296.302429,83.782211 287.768341,102.293495 272.751923,117.458626   C267.771301,122.488571 262.573639,127.667442 254.707138,128.154495   C240.171524,129.054474 226.225540,132.902924 212.193878,136.481339   C201.746902,139.145584 191.212387,141.536438 180.176224,139.388855   C163.983017,136.237717 148.044357,137.202606 132.745880,143.917786   C102.519203,157.185593 91.526215,186.783157 95.573448,217.468811   C96.809784,226.842606 100.099449,235.947601 99.720818,245.514160   C99.190193,258.921082 95.783951,271.773102 91.444565,284.397827   C86.740570,298.083313 82.059586,311.864655 79.644020,326.097015   C75.636658,349.708191 76.439804,373.345398 80.738777,397.020538   C84.974670,420.348206 91.622726,442.886292 99.854576,465.031830   C102.191429,471.318512 102.559547,477.518005 100.427887,484.033875   C95.771797,498.266113 92.044479,512.753601 89.760979,527.578369   C87.673203,541.132507 86.989105,554.804626 88.392136,568.409424   C90.597931,589.798279 98.952843,609.546204 106.204514,629.506470   C114.370934,651.984741 119.669327,675.054565 122.064781,698.788452   C122.458954,702.693848 123.583580,703.943298 127.411545,703.890625   C140.241425,703.714050 153.075119,703.823059 165.907318,703.800293   C174.698761,703.784729 174.678207,703.769409 174.125244,695.228271   C173.974609,692.901855 173.978134,690.565002 173.927750,688.232544   C173.240753,656.424072 170.056046,624.863525 165.248795,593.414062   C161.830566,571.051697 157.350342,548.926453 151.908524,527.003784   C146.269684,504.287506 140.122299,481.696259 134.077011,459.082489   C129.234360,440.967468 124.368759,422.828857 121.163086,404.368530   C117.607666,383.894073 115.567467,363.259613 116.622749,342.329742   C117.457283,325.777985 120.366646,309.660889 124.100342,293.632324   C125.834503,286.187653 133.297516,280.973969 139.992798,281.916290   C147.720398,283.003876 152.418701,289.010590 152.362854,297.486481   C152.330399,302.410248 150.320251,306.882507 149.467148,311.601776   C145.453522,333.804413 144.022949,355.997681 146.770111,378.619843   C149.709763,402.826965 155.372177,426.343933 161.480637,449.825195   C166.747101,470.069672 172.264069,490.249786 177.412781,510.523773   C180.600677,523.076660 183.588165,535.694885 186.159576,548.386292   C189.424637,564.501099 192.683044,580.648010 194.991028,596.916260   C196.856079,610.062561 198.535629,623.258484 199.582092,636.541992   C201.176559,656.781616 202.962952,676.994995 203.280655,697.306091   C203.382004,703.783875 203.342911,703.820618 210.016724,703.822266   C254.346268,703.833557 298.675812,703.835022 343.005371,703.821655   C350.695312,703.819336 350.705719,703.779907 350.705811,696.285950   C350.707458,562.130615 350.706238,427.975311 350.706970,293.820007   C350.706970,291.653595 350.655029,289.484314 350.745239,287.321320   C350.998932,281.240295 355.247620,275.989563 361.286255,274.199829   C366.980835,272.512085 373.004242,274.831390 376.681580,279.802307   C379.145203,283.132538 379.347382,286.804413 379.346436,290.702423   C379.313324,426.190948 379.318298,561.679443 379.322113,697.167969   C379.322327,703.791565 379.340210,703.834778 385.877563,703.836426   C426.540771,703.846680 467.203979,703.837341 507.867188,703.830322   C512.700073,703.829468 517.536621,703.683044 522.364563,703.831177   C525.580383,703.929871 526.793335,702.697449 526.783569,699.453674   C526.732178,682.293213 528.283447,665.222168 529.442322,648.113525   C531.063232,624.182861 534.237122,600.455566 538.132874,576.869446   C542.705688,549.184204 549.366028,521.880066 556.484863,494.720520   C563.977051,466.136658 572.449646,437.806152 578.383484,408.821259   C581.656921,392.831146 583.997070,376.737671 584.690308,359.441040  z"/>
  <path fill="#000000" opacity="1.000000" stroke="none" d=" M442.457947,376.922729   C439.959961,368.379700 443.477814,361.428864 447.391876,354.877563   C459.901672,333.938904 478.630920,321.095306 502.004425,315.276520   C508.946533,313.548340 516.587646,313.239380 523.579651,316.249908   C530.466309,319.215088 533.688049,325.977966 532.019958,332.988495   C530.483459,339.446259 524.946777,343.419006 517.521729,343.391541   C496.693970,343.314514 477.835297,355.940247 469.732941,375.427460   C467.249512,381.400452 463.198944,385.679413 456.517395,386.042023   C450.094574,386.390594 445.469025,383.063019 442.457947,376.922729  z"/>
  <path fill="#000000" opacity="1.000000" stroke="none" d=" M285.911987,361.311157   C287.494507,364.894714 288.443054,368.200470 288.379974,371.792328   C288.258301,378.720673 284.026398,384.107880 277.154907,385.867584   C271.690430,387.266907 264.778198,384.314148 262.081848,378.609192   C258.659088,371.367279 255.573608,364.094421 249.287262,358.646362   C238.576706,349.364105 227.212296,342.233246 212.132965,343.280365   C204.072327,343.840179 198.027649,337.782013 197.724640,330.008881   C197.416550,322.105743 203.734406,315.462524 211.795532,314.704193   C229.775757,313.012695 245.032242,319.757233 259.240448,329.746399   C270.753021,337.840332 279.891296,348.023102 285.911987,361.311157  z"/>
  <path fill="#000000" opacity="1.000000" stroke="none" d=" M379.254974,228.577347   C377.593414,234.922424 374.053711,239.092804 367.855408,240.156876   C361.870300,241.184372 356.667053,239.568069 353.061981,234.248901   C349.680664,229.259888 349.758453,222.844986 353.308075,217.929886   C356.844971,213.032349 363.284973,210.623154 368.655243,212.188522   C374.838684,213.990936 379.111694,219.387909 379.307922,225.662811   C379.333862,226.491577 379.292969,227.322433 379.254974,228.577347  z"/>
</svg>
