<svg version="1.1" id="Layer_1" xmlns="http://www.w3.org/2000/svg" xmlns:xlink="http://www.w3.org/1999/xlink" x="0px" y="0px" width="100%" viewBox="0 0 704 736" enable-background="new 0 0 704 736" xml:space="preserve">
<path fill="#000000" opacity="1.000000" stroke="none" d=" M564.254883,614.390930   C560.830750,615.372742 557.810303,616.329041 554.728943,617.009277   C547.055054,618.703369 540.158142,614.977356 537.410034,607.786560   C534.889038,601.190002 538.024292,593.802551 545.041199,590.306885   C551.632812,587.022949 559.050720,586.182373 565.869507,583.513428   C578.062439,578.741150 588.874573,572.729492 591.368347,558.143005   C592.402344,552.094727 594.127502,546.165955 595.205261,540.123474   C598.174255,523.477783 604.473633,507.901306 610.312866,492.173126   C616.140320,476.476807 619.093445,460.122284 620.547852,443.564331   C621.785217,429.476196 622.448975,415.306152 621.766357,401.129822   C620.637268,377.682953 617.925049,354.437286 614.265137,331.233948   C610.796326,309.242188 606.280396,287.485931 601.489807,265.783691   C597.772034,248.941055 593.052124,232.322067 588.993530,215.551437   C586.023926,203.281158 582.676697,191.103516 580.293640,178.685562   C576.787720,160.416718 570.141846,143.250427 561.393982,126.867645   C548.719666,103.131493 533.412354,81.514816 511.659058,65.099442   C498.207123,54.948399 483.309479,48.312027 466.298737,47.396732   C457.597992,46.928574 449.090271,48.421329 440.791107,51.208527   C425.329407,56.401169 409.808838,61.378967 395.675476,69.830467   C385.644714,75.828674 383.291260,80.904816 385.977631,92.193901   C386.247498,93.328079 386.565918,94.452637 386.787292,95.596077   C387.737518,100.503998 389.924713,102.970573 395.520203,104.440369   C411.053925,108.520706 420.788757,119.378075 425.074554,134.789673   C427.606354,143.893906 429.853241,153.111481 431.552368,162.401688   C432.775330,169.088562 430.389252,175.542145 428.230560,181.851501   C427.809418,183.082474 426.781616,184.116867 427.105988,185.925995   C430.979462,188.415314 435.785980,188.489029 440.222168,189.292068   C456.364136,192.213989 472.545288,193.475616 488.683838,188.787643   C494.625244,187.061768 499.444580,183.755493 504.132477,179.932877   C510.729675,174.553406 519.197571,174.976425 524.299316,180.660202   C529.925537,186.928314 529.516479,194.809387 523.265686,201.225769   C516.485962,208.185013 508.300079,212.892090 499.139404,215.825668   C496.186798,216.771210 495.170898,218.218460 495.272552,221.169113   C496.218079,248.618195 491.993408,275.568512 487.128998,302.431122   C484.256836,318.292053 480.716248,334.033569 477.940796,349.909973   C473.227814,376.869415 471.125000,403.987671 474.191376,431.335175   C475.057281,439.058228 474.844696,446.573425 466.694519,450.841797   C460.496552,454.087769 453.911438,452.239166 446.671204,445.084961   C428.997131,427.620972 409.292358,412.937683 387.004517,401.929108   C375.513519,396.253418 363.563599,391.606842 350.898865,389.079498   C347.622284,388.425629 344.481232,387.274628 341.601288,385.551025   C336.508118,382.502838 333.681610,375.959442 335.032410,370.521240   C336.586334,364.265137 342.005432,359.782837 348.363129,359.684448   C357.716766,359.539581 366.305054,362.960541 374.939545,365.851959   C398.368652,373.697662 419.621155,385.659546 439.231598,400.615875   C440.157684,401.322174 441.120148,401.984741 442.101379,402.611816   C442.337952,402.763031 442.717102,402.691132 443.512970,402.769135   C443.896881,399.033722 444.621796,395.294128 444.607544,391.557343   C444.537994,373.311646 447.926392,355.497498 451.073395,337.652649   C455.110077,314.763306 460.544983,292.115417 463.522888,269.050934   C465.373535,254.717606 467.269775,240.349274 466.795288,225.795456   C466.667236,221.868408 465.845123,220.196671 461.513641,220.197678   C440.639435,220.202591 420.451172,216.748947 401.630219,207.189285   C399.396301,206.054611 397.020691,206.097137 394.784485,206.578369   C378.236267,210.139511 358.442413,198.904099 352.321411,183.508224   C346.932373,169.953415 341.983307,156.123642 342.762024,141.093338   C343.326508,130.197495 347.843170,120.946449 355.956482,114.042618   C360.296783,110.349350 360.149231,107.260086 358.806061,102.528564   C355.098999,89.469978 353.783356,76.381714 360.919891,63.819527   C365.955139,54.956120 373.586426,48.880180 382.273193,44.034508   C401.859100,33.109032 422.699585,24.893494 444.498169,20.254446   C468.530579,15.140018 491.727325,19.490192 513.345459,31.707907   C533.750488,43.240013 550.001587,59.185795 564.013611,77.723534   C582.054810,101.591743 595.754395,127.736443 604.559326,156.282562   C608.122925,167.836197 609.957275,179.913971 612.835083,191.690536   C617.330505,210.086884 622.231201,228.385422 626.615417,246.807465   C631.455261,267.144165 635.722229,287.601654 639.583618,308.161530   C642.898010,325.808807 645.573547,343.550629 647.573914,361.337769   C650.457825,386.981049 651.273926,412.756042 649.619080,438.609467   C648.830200,450.934143 647.170349,463.106232 644.978699,475.168427   C642.693787,487.744080 639.088928,500.134247 633.885864,511.845032   C626.986877,527.373108 623.646606,543.850464 620.572327,560.308960   C616.049377,584.523254 602.328796,600.328796 579.716370,609.110901   C574.750854,611.039368 569.766602,612.844727 564.254883,614.390930  M379.865753,173.578430   C384.912445,178.128113 391.220642,179.256683 396.333984,176.524689   C401.168518,173.941666 403.433472,168.232758 401.887970,161.367035   C400.357147,154.566605 398.687531,147.775330 396.612976,141.125351   C394.397034,134.022125 388.370239,130.890152 380.831268,132.324799   C375.200745,133.396286 370.139160,139.940399 371.546143,146.366165   C373.521027,155.385208 374.926636,164.682785 379.865753,173.578430  z"/>
  <path fill="#000000" opacity="1.000000" stroke="none" d=" M162.920288,686.922668   C148.670029,699.817749 134.121948,711.647034 117.095825,720.167236   C101.711403,727.865906 91.119896,721.583252 91.107529,704.195557   C91.053719,628.531250 91.081398,552.867004 91.077202,477.202698   C91.074471,428.037567 91.058907,378.872437 91.085983,329.707306   C91.087540,326.885742 91.166985,324.019745 91.650742,321.251404   C93.034332,313.333618 99.008163,308.488312 107.884621,308.899353   C123.165337,309.606903 138.249496,311.578796 153.192474,315.331879   C170.751785,319.742035 187.517365,325.813019 203.183640,334.845001   C222.716873,346.106354 238.989792,360.808441 250.634583,380.325409   C253.650391,385.379944 254.707352,390.601288 251.490784,395.884216   C248.400787,400.959290 243.822311,403.639862 237.714996,403.210236   C232.771576,402.862518 229.461777,399.825287 226.794540,396.094055   C223.018219,390.811310 219.585648,385.281311 215.076935,380.551117   C198.028107,362.664856 176.801010,352.128265 153.440475,345.189606   C142.887695,342.055145 132.117828,340.311371 120.659439,338.670349   C120.659439,453.618011 120.659439,568.248718 120.659439,682.971313   C123.121758,683.287476 124.451675,681.604126 125.957664,680.439270   C147.676636,663.640930 166.361115,643.720825 184.596268,623.341858   C185.929016,621.852478 187.177353,620.286804 188.527664,618.814087   C194.386276,612.424622 199.952377,610.893066 207.810547,614.358337   C226.417725,622.563660 245.439911,629.625977 265.267517,634.096008   C287.579865,639.126282 310.148499,641.141663 333.126068,639.150757   C347.794647,637.879883 362.097382,635.144592 376.370575,631.905090   C391.630920,628.441528 406.450836,623.445129 421.382904,618.841919   C427.420135,616.980713 433.392731,614.858704 439.514008,613.334229   C447.872314,611.252686 454.693024,615.276794 457.564148,623.481567   C459.645538,629.429443 456.117310,637.133179 448.913879,640.020508   C440.442474,643.416077 431.618500,645.953064 422.893402,648.690186   C404.336060,654.511719 385.627899,659.770203 366.557281,663.689880   C341.737976,668.791138 316.732422,669.603149 291.548584,667.443604   C263.422607,665.031738 236.652115,657.376465 210.673691,646.688110   C206.433701,644.943726 203.601944,645.161987 200.301849,648.943298   C188.689987,662.248230 176.495422,675.028381 162.920288,686.922668  z"/>
  <path fill="#000000" opacity="1.000000" stroke="none" d=" M407.151917,503.060242   C414.974274,500.062927 422.415680,497.172913 429.864532,494.302185   C435.261627,492.222168 440.191315,493.580017 444.249847,497.188354   C448.559021,501.019531 449.701843,506.139008 448.309631,511.786255   C447.169403,516.411438 443.958099,519.237671 439.896515,521.075256   C419.967621,530.091858 399.296814,536.648804 377.704132,540.485352   C355.243622,544.476135 332.661530,544.857300 310.081024,543.065369   C288.625549,541.362610 267.735840,536.531189 247.732178,528.342529   C241.298935,525.709106 237.076767,519.479675 237.634140,513.719238   C238.302170,506.815155 243.318954,501.436951 250.437134,500.309601   C255.650070,499.483978 260.123657,502.323395 264.783661,503.857117   C276.331696,507.657806 288.059540,510.339325 300.087738,512.229309   C308.987854,513.627747 317.832855,514.486084 326.811646,514.809631   C354.192444,515.796570 380.841766,512.015320 407.151917,503.060242  z"/>
  <path fill="#000000" opacity="1.000000" stroke="none" d=" M495.231537,598.767151   C505.490997,599.117004 510.823792,604.901123 510.361542,614.704529   C509.990906,622.565369 503.588104,627.791138 494.950165,627.283081   C489.166931,626.942810 483.989014,622.202026 482.258453,615.662598   C480.994171,610.885254 484.309326,603.788330 489.265625,600.853760   C490.971802,599.843628 492.761505,598.937256 495.231537,598.767151  z"/>
  <path fill="#000000" opacity="1.000000" stroke="none" d=" M299.683136,359.069702   C305.973267,363.389069 308.355652,368.765381 306.999084,375.032440   C305.861206,380.289154 300.982697,384.578339 295.004425,385.578217   C289.488739,386.500732 283.974915,383.965424 280.950745,379.116180   C277.889679,374.207794 278.278656,367.294647 281.873657,362.713989   C285.964630,357.501373 292.029266,356.170166 299.683136,359.069702  z"/>
</svg>
