<svg viewBox="0 0 24 24" fill="currentColor" xmlns="http://www.w3.org/2000/svg">
  <!-- Head -->
  <circle cx="12" cy="3.5" r="1.8"/>
  <!-- Neck to shoulders -->
  <path d="M 11 5.3 L 9.5 7 L 14.5 7 L 13 5.3 Z" fill="currentColor"/>
  <!-- Torso -->
  <path d="M 10 7 L 8.5 12 Q 8.5 13 9.5 13.2 L 14.5 13.2 Q 15.5 13 15.5 12 L 14 7 Z" fill="currentColor"/>
  <!-- Left arm -->
  <path d="M 9.5 8 Q 6.5 9 5.5 12 Q 5.3 12.7 6 13 Q 6.8 12.5 7 11 Q 8 9 9.5 8.5 Z" fill="currentColor"/>
  <!-- Right arm -->
  <path d="M 14.5 8 Q 17.5 9 18.5 12 Q 18.7 12.7 18 13 Q 17.2 12.5 17 11 Q 16 9 14.5 8.5 Z" fill="currentColor"/>
  <!-- Left leg -->
  <path d="M 10 13 Q 9.5 16.5 9.2 20 Q 9.1 20.8 9.9 21 Q 10.7 20.8 10.8 20 Q 11 16.5 11.5 13 Z" fill="currentColor"/>
  <!-- Right leg -->
  <path d="M 14 13 Q 14.5 16.5 14.8 20 Q 14.9 20.8 14.1 21 Q 13.3 20.8 13.2 20 Q 13 16.5 12.5 13 Z" fill="currentColor"/>
  <!-- Foot left -->
  <ellipse cx="9.5" cy="21.3" rx="1.2" ry="0.7"/>
  <!-- Foot right -->
  <ellipse cx="14.5" cy="21.3" rx="1.2" ry="0.7"/>
</svg>

