<svg version="1.1" id="Layer_1" xmlns="http://www.w3.org/2000/svg" xmlns:xlink="http://www.w3.org/1999/xlink" x="0px" y="0px" width="100%" viewBox="0 0 672 736" enable-background="new 0 0 672 736" xml:space="preserve">
<path fill="#000000" opacity="1.000000" stroke="none" d=" M402.195404,714.261841   C397.421844,717.045166 393.107269,719.928772 388.504120,722.236938   C373.226837,729.897095 353.124664,724.259155 345.337830,707.399353   C342.347412,700.924561 344.891479,696.006470 348.880341,691.499207   C360.375610,678.509827 371.446686,665.208557 381.039062,650.722107   C397.616241,625.687256 410.278900,599.011780 417.241669,569.591187   C422.163635,548.793823 424.031769,527.832764 422.405365,506.705078   C420.945496,487.740692 415.927643,469.470337 408.558685,451.803406   C397.161163,424.478058 386.290283,396.933075 375.185150,369.485626   C375.007019,369.045258 374.690735,368.660797 374.260559,367.959473   C372.725433,382.168335 372.383698,396.181702 369.959717,409.995575   C361.822968,456.365845 344.990326,499.552246 322.333771,540.611755   C320.526154,543.887695 319.460297,547.264282 318.823212,550.917480   C316.428131,564.651001 316.289429,578.337769 318.973480,592.055908   C319.483307,594.661377 320.680298,596.626160 322.422028,598.514648   C328.656616,605.274536 334.107941,612.656677 338.716949,620.595520   C355.743042,649.922241 336.569489,683.326050 307.841949,690.066406   C298.067535,692.359741 288.402496,691.148987 279.087830,689.524475   C265.268250,687.114502 252.302368,689.745056 239.160431,692.674561   C224.396362,695.965759 209.656158,699.363770 194.902908,702.703613   C174.333939,707.359802 153.761826,712.002075 133.192413,716.656311   C124.124992,718.708069 115.140190,721.276917 105.977699,722.722473   C90.425583,725.176147 72.070061,714.011169 69.987740,695.130981   C69.324524,689.117676 71.952293,684.178589 77.548111,681.033936   C97.931107,669.579712 117.188377,656.509949 134.783737,641.044556   C163.586609,615.728210 185.536118,585.556885 198.962051,549.542358   C206.385529,529.629089 210.597443,508.881805 210.487503,487.593079   C210.432892,477.015106 208.428070,466.448853 207.335571,455.874176   C205.763748,440.660187 204.276840,425.437164 202.647491,410.229370   C200.929413,394.193390 199.014404,378.178345 197.318863,362.140045   C195.693542,346.765961 194.263992,331.371277 192.702988,315.990234   C191.191864,301.100677 189.894775,286.182312 187.999634,271.340942   C186.249695,257.636749 184.705597,243.893661 184.110336,230.129807   C183.544281,217.041367 187.901871,205.270569 197.505371,195.801758   C210.913620,182.581512 224.203445,169.241089 237.625137,156.034607   C243.351501,150.400070 249.599426,149.035751 255.275574,151.827057   C265.073029,156.645035 266.803192,167.661285 258.733032,175.909592   C247.315399,187.579208 236.147919,199.574127 223.911392,210.336044   C214.370972,218.726776 211.966095,227.947479 213.816193,240.094025   C216.165115,255.515442 216.832306,271.187958 218.407990,286.733612   C219.983688,302.279572 221.823212,317.798553 223.477478,333.336792   C225.114136,348.709686 226.620987,364.096436 228.262375,379.468811   C230.362839,399.140533 232.534576,418.804657 234.688248,438.470703   C235.809967,448.713440 236.355164,459.004852 237.820892,469.225830   C239.715775,482.439484 239.866318,495.688538 238.174500,509.017792   C235.648438,528.919739 230.883041,548.178284 223.310852,566.747620   C203.461823,615.423523 170.381317,653.305969 127.994408,683.598572   C126.106529,684.947815 124.252159,686.343933 121.974792,688.017578   C123.663429,689.039856 125.061386,688.613892 126.419693,688.303467   C145.682663,683.900269 164.924530,679.402771 184.210632,675.103638   C198.951813,671.817566 213.756317,668.816528 228.516251,665.613220   C234.675385,664.276611 240.918182,663.137024 246.900360,661.215088   C257.593475,657.779541 268.308716,659.608093 279.035492,660.306580   C285.172455,660.706238 291.283508,661.674377 297.421326,661.845703   C304.250519,662.036133 309.612488,658.970154 313.230042,653.061279   C317.244873,646.503479 316.533905,639.980835 312.806885,633.666443   C308.812408,626.898987 303.829620,620.843262 298.519714,615.069214   C294.933716,611.169800 292.912903,606.611084 291.552490,601.489929   C287.296967,585.470337 287.158600,569.295349 288.913971,552.975220   C290.447815,538.714844 297.116699,526.496399 303.627838,514.069275   C319.058716,484.617981 330.460205,453.570587 338.373230,421.294495   C342.500000,404.462006 344.448029,387.227356 344.677826,369.932678   C344.923615,351.436432 341.819550,333.275879 337.479004,315.280640   C333.823517,300.125610 330.925110,284.788544 327.646973,269.541687   C326.079926,262.253082 324.754272,254.887955 322.703979,247.733810   C319.722870,237.331589 326.272339,228.053848 337.161926,227.849518   C345.970581,227.684250 354.744720,227.795853 363.583466,226.951080   C383.596741,225.038315 402.315765,219.252167 420.170135,210.332977   C454.262299,193.302170 484.299622,170.452805 512.903931,145.548416   C538.065979,123.640999 561.590210,100.078987 584.030212,75.415611   C598.382751,59.641064 612.116211,43.338150 625.515869,26.749733   C628.309692,23.290987 631.557983,20.766285 636.417114,20.601149   C642.450806,20.396097 647.253174,22.167652 650.231323,27.613972   C653.367676,33.349506 652.744324,39.084053 648.830078,44.024574   C640.248413,54.856400 631.528809,65.593895 622.493286,76.048180   C601.351929,100.509331 579.193237,124.013954 555.612610,146.162674   C536.293518,164.308609 516.385925,181.763336 495.050171,197.505600   C491.039886,200.464554 491.183960,202.501816 493.867249,206.281021   C504.461090,221.201736 515.863586,235.651947 523.461060,252.473114   C529.636597,266.146027 534.028748,280.425232 537.248535,295.086517   C544.651733,328.796265 546.068237,362.981964 545.118286,397.300018   C544.303040,426.753448 541.800110,456.087219 536.523438,485.123047   C535.660156,489.873505 536.602234,494.528656 537.730408,498.957458   C540.270264,508.928223 543.123779,518.827759 547.620789,528.193176   C549.655396,532.430359 552.346130,535.527771 556.382507,537.992188   C567.334167,544.678772 578.266968,551.517822 585.553772,562.568542   C602.886353,588.853882 588.777893,625.574463 558.302490,633.354919   C548.328552,635.901306 538.285583,638.198425 528.219727,640.355286   C521.978394,641.692688 517.039429,645.477173 511.799103,648.599060   C475.315247,670.334412 438.935394,692.244446 402.195404,714.261841  M393.591888,337.945923   C403.109253,361.538452 412.656128,385.119110 422.133728,408.727600   C428.576935,424.777466 435.558899,440.648193 441.165009,456.988403   C449.769318,482.067505 452.947876,507.985168 451.382019,534.577393   C450.171936,555.127441 446.691223,575.203735 440.540344,594.750488   C431.219543,624.370972 416.836792,651.495300 398.494537,676.533081   C396.501465,679.253723 394.574066,682.022522 392.616211,684.768982   C394.898315,684.551575 396.522461,683.791382 398.053497,682.875488   C430.495483,663.468079 462.905090,644.006348 495.375549,624.646606   C503.772064,619.640320 511.789185,613.888733 521.757263,611.971802   C530.877747,610.217896 539.882751,607.870972 548.962646,605.895813   C556.524597,604.250916 561.692444,599.824829 563.379456,592.348389   C565.021790,585.070068 563.230408,578.574219 557.030640,573.581970   C550.776733,568.546204 544.175720,564.079163 537.150574,560.234863   C534.158081,558.597290 531.701599,556.453552 529.713257,553.710510   C519.972656,540.272522 514.453613,525.068359 510.602783,509.075928   C508.164429,498.949402 506.707550,488.868958 508.446777,478.478882   C512.072632,456.818481 514.425049,434.998810 515.673462,413.088196   C516.867249,392.136078 517.005615,371.145111 515.719788,350.181824   C514.517090,330.575531 511.517242,311.236237 507.023712,292.095184   C500.600372,264.733459 484.742401,242.549759 468.508667,220.508560   C466.628265,217.955460 464.932587,218.258469 462.614441,219.704651   C457.953735,222.612228 453.225525,225.418869 448.446259,228.127930   C426.586487,240.518845 403.689545,250.114227 378.756897,254.468399   C373.122070,255.452438 367.166687,254.855774 361.169617,257.617249   C371.952911,284.298767 382.646790,310.758972 393.591888,337.945923  z"/>
  <path fill="#000000" opacity="1.000000" stroke="none" d=" M354.951569,80.951149   C352.318207,83.527367 350.031891,85.962135 347.535706,88.158371   C341.879242,93.135170 333.149109,93.033012 327.959351,88.057693   C322.136414,82.475349 321.193176,74.266777 326.826935,68.362518   C337.388763,57.293530 348.518402,46.764874 359.457092,36.057667   C363.735291,31.869993 367.898987,27.515953 372.532074,23.751146   C380.617462,17.181009 391.908691,20.333502 395.432983,30.092741   C397.639740,36.203506 395.622894,41.467484 391.022980,45.913692   C379.055634,57.481178 367.139740,69.101913 354.951569,80.951149  z"/>
  <path fill="#000000" opacity="1.000000" stroke="none" d=" M280.491302,126.476715   C278.520050,119.869766 279.368011,114.224518 284.610474,109.912872   C289.278625,106.073593 294.577026,105.579849 299.984253,108.195183   C305.833374,111.024254 308.485107,115.886917 308.100250,122.343704   C307.749115,128.235184 302.670715,133.791779 296.538116,135.146088   C290.210571,136.543442 284.194763,133.396194 280.491302,126.476715  z"/>
</svg>
